<svg width="512" height="512" viewBox="0 0 512 512" fill="none" xmlns="http://www.w3.org/2000/svg">
<style>
  path {
    fill: black;
  }
  @media (prefers-color-scheme: dark) {
    path {
      fill: white;
    }
  }
</style>
<path d="M236.752 231.541L133.378 335.909C129.158 340.169 124.236 342.21 118.61 342.033C112.984 341.855 108.062 339.637 103.842 335.377C99.9747 331.117 97.953 326.147 97.7771 320.467C97.6013 314.787 99.6231 309.817 103.842 305.557L243.081 164.98C245.19 162.85 247.476 161.342 249.937 160.454C252.398 159.567 255.035 159.123 257.848 159.123C260.661 159.123 263.298 159.567 265.76 160.454C268.221 161.342 270.506 162.85 272.616 164.98L411.854 305.557C415.722 309.462 417.656 314.343 417.656 320.201C417.656 326.058 415.722 331.117 411.854 335.377C407.635 339.637 402.624 341.767 396.823 341.767C391.021 341.767 386.011 339.637 381.791 335.377L278.945 231.541V469.564C278.945 475.599 276.923 480.657 272.88 484.74C268.836 488.822 263.826 490.863 257.848 490.863C251.871 490.863 246.86 488.822 242.817 484.74C238.773 480.657 236.752 475.599 236.752 469.564V231.541Z" fill="currentColor"/>
<path fill-rule="evenodd" clip-rule="evenodd" d="M258 62.2033L388.126 192.329C394.96 199.163 406.04 199.163 412.874 192.329C419.709 185.495 419.709 174.414 412.874 167.58L277.445 32.1512C266.706 21.4118 249.294 21.4118 238.555 32.1512L103.126 167.58C96.2915 174.414 96.2915 185.495 103.126 192.329C109.96 199.163 121.04 199.163 127.874 192.329L258 62.2033Z" fill="currentColor"/>
</svg>
